<svg width="61" height="60" viewBox="0 0 61 60" fill="none" xmlns="http://www.w3.org/2000/svg">
<path opacity="0.21" fill-rule="evenodd" clip-rule="evenodd" d="M0.333374 29.9999V36.9999C0.333374 49.7024 10.6308 59.9999 23.3334 59.9999H30.3334H37.3334C50.0359 59.9999 60.3334 49.7024 60.3334 36.9999V29.9999V22.9999C60.3334 10.2973 50.0359 -0.00012207 37.3334 -0.00012207H30.3334H23.3334C10.6308 -0.00012207 0.333374 10.2973 0.333374 22.9999V29.9999Z" fill="#28B30E"/>
<path fill-rule="evenodd" clip-rule="evenodd" d="M15.3334 24.3164L28.2339 31.7645C28.3728 31.8447 28.5184 31.9026 28.6667 31.9394V46.3846L16.2534 39.0384C15.6832 38.7009 15.3334 38.0874 15.3334 37.4248V24.3164ZM45.3334 24.1183V37.4248C45.3334 38.0874 44.9836 38.7009 44.4133 39.0384L32 46.3846V31.8128C32.0303 31.7977 32.0603 31.7816 32.0899 31.7645L45.3334 24.1183Z" fill="#28B30E"/>
<path opacity="0.499209" fill-rule="evenodd" clip-rule="evenodd" d="M15.7386 20.7013C15.8962 20.5023 16.095 20.3341 16.3269 20.2106L29.4519 13.22C30.0029 12.9265 30.6638 12.9265 31.2148 13.22L44.3398 20.2106C44.5185 20.3058 44.6777 20.4276 44.8134 20.5695L30.4233 28.8777C30.3286 28.9323 30.2414 28.9948 30.1619 29.0639C30.0824 28.9948 29.9951 28.9323 29.9005 28.8777L15.7386 20.7013Z" fill="#28B30E"/>
</svg>
